<svg xmlns="http://www.w3.org/2000/svg" xmlns:xlink="http://www.w3.org/1999/xlink" width="1301" zoomAndPan="magnify" viewBox="79 630 1301 232" height="232" preserveAspectRatio="xMidYMid meet" version="1.0"><defs><g/></defs><g fill="#ffffff" fill-opacity="1"><g transform="translate(79.601129, 858.749906)"><g><path d="M 21.796875 0 L 21.796875 -224.3125 L 166.625 -224.3125 L 166.625 -191.296875 L 62.8125 -191.296875 L 62.8125 -128.5 L 146.765625 -128.5 L 146.765625 -96.125 L 62.8125 -96.125 L 62.8125 0 Z M 21.796875 0 "/></g></g></g><g fill="#ffffff" fill-opacity="1"><g transform="translate(249.116129, 858.749906)"><g><path d="M 126.890625 3.84375 C 104.460938 3.84375 84.863281 -1.066406 68.09375 -10.890625 C 51.320312 -20.722656 38.179688 -34.34375 28.671875 -51.75 C 19.171875 -69.15625 14.421875 -89.289062 14.421875 -112.15625 C 14.421875 -135.007812 19.171875 -155.140625 28.671875 -172.546875 C 38.179688 -189.960938 51.320312 -203.582031 68.09375 -213.40625 C 84.863281 -223.238281 104.460938 -228.15625 126.890625 -228.15625 C 149.109375 -228.15625 168.65625 -223.238281 185.53125 -213.40625 C 202.40625 -203.582031 215.539062 -189.960938 224.9375 -172.546875 C 234.34375 -155.140625 239.046875 -135.007812 239.046875 -112.15625 C 239.046875 -89.289062 234.34375 -69.15625 224.9375 -51.75 C 215.539062 -34.34375 202.40625 -20.722656 185.53125 -10.890625 C 168.65625 -1.066406 149.109375 3.84375 126.890625 3.84375 Z M 126.890625 -33 C 148.253906 -33 165.289062 -40.046875 178 -54.140625 C 190.707031 -68.242188 197.0625 -87.582031 197.0625 -112.15625 C 197.0625 -136.71875 190.707031 -156.046875 178 -170.140625 C 165.289062 -184.242188 148.253906 -191.296875 126.890625 -191.296875 C 105.523438 -191.296875 88.429688 -184.242188 75.609375 -170.140625 C 62.796875 -156.046875 56.390625 -136.71875 56.390625 -112.15625 C 56.390625 -87.582031 62.796875 -68.242188 75.609375 -54.140625 C 88.429688 -40.046875 105.523438 -33 126.890625 -33 Z M 126.890625 -33 "/></g></g></g><g fill="#ffffff" fill-opacity="1"><g transform="translate(495.537751, 858.749906)"><g><path d="M 21.796875 0 L 21.796875 -224.3125 L 104.140625 -224.3125 C 122.085938 -224.3125 136.878906 -221.265625 148.515625 -215.171875 C 160.160156 -209.085938 168.867188 -200.863281 174.640625 -190.5 C 180.410156 -180.132812 183.296875 -168.648438 183.296875 -156.046875 C 183.296875 -142.378906 179.71875 -129.882812 172.5625 -118.5625 C 165.40625 -107.238281 154.238281 -99.015625 139.0625 -93.890625 L 185.53125 0 L 138.421875 0 L 96.765625 -88.4375 L 62.8125 -88.4375 L 62.8125 0 Z M 62.8125 -118.5625 L 101.578125 -118.5625 C 115.253906 -118.5625 125.296875 -121.867188 131.703125 -128.484375 C 138.109375 -135.109375 141.3125 -143.867188 141.3125 -154.765625 C 141.3125 -165.453125 138.160156 -174 131.859375 -180.40625 C 125.554688 -186.8125 115.359375 -190.015625 101.265625 -190.015625 L 62.8125 -190.015625 Z M 62.8125 -118.5625 "/></g></g></g><g fill="#ffffff" fill-opacity="1"><g transform="translate(688.124721, 858.749906)"><g><path d="M 123.375 3.84375 C 100.726562 3.84375 81.285156 -1.015625 65.046875 -10.734375 C 48.816406 -20.453125 36.320312 -34.015625 27.5625 -51.421875 C 18.800781 -68.835938 14.421875 -88.972656 14.421875 -111.828125 C 14.421875 -134.691406 18.800781 -154.878906 27.5625 -172.390625 C 36.320312 -189.910156 48.816406 -203.582031 65.046875 -213.40625 C 81.285156 -223.238281 100.726562 -228.15625 123.375 -228.15625 C 150.289062 -228.15625 172.34375 -221.476562 189.53125 -208.125 C 206.726562 -194.769531 217.46875 -176.023438 221.75 -151.890625 L 176.5625 -151.890625 C 173.78125 -164.066406 167.847656 -173.625 158.765625 -180.5625 C 149.691406 -187.507812 137.679688 -190.984375 122.734375 -190.984375 C 102.003906 -190.984375 85.765625 -183.929688 74.015625 -169.828125 C 62.265625 -155.734375 56.390625 -136.398438 56.390625 -111.828125 C 56.390625 -87.265625 62.265625 -67.984375 74.015625 -53.984375 C 85.765625 -39.992188 102.003906 -33 122.734375 -33 C 137.679688 -33 149.691406 -36.253906 158.765625 -42.765625 C 167.847656 -49.285156 173.78125 -58.316406 176.5625 -69.859375 L 221.75 -69.859375 C 217.46875 -46.785156 206.726562 -28.734375 189.53125 -15.703125 C 172.34375 -2.671875 150.289062 3.84375 123.375 3.84375 Z M 123.375 3.84375 "/></g></g></g><g fill="#ffffff" fill-opacity="1"><g transform="translate(917.242374, 858.749906)"><g><path d="M 21.796875 0 L 21.796875 -224.3125 L 168.234375 -224.3125 L 168.234375 -191.296875 L 62.8125 -191.296875 L 62.8125 -129.78125 L 158.609375 -129.78125 L 158.609375 -97.734375 L 62.8125 -97.734375 L 62.8125 -33 L 168.234375 -33 L 168.234375 0 Z M 21.796875 0 "/></g></g></g><path fill="#ffffff" d="M 1107.734375 634.570312 L 1191.78125 746.691406 L 1107.734375 859.148438 L 1200.746094 859.148438 L 1284.960938 746.691406 L 1200.574219 634.570312 Z M 1159.144531 660.277344 L 1187.722656 660.277344 L 1252.660156 746.691406 L 1187.046875 834.289062 L 1158.636719 833.953125 L 1223.914062 746.691406 Z M 1159.144531 660.277344 " fill-opacity="1" fill-rule="nonzero"/><path fill="#ffffff" d="M 1375.097656 634.570312 L 1282.425781 634.570312 L 1254.183594 672.28125 L 1270.25 693.589844 L 1294.9375 660.445312 L 1324.023438 660.445312 L 1284.960938 712.363281 L 1300.855469 733.667969 Z M 1375.097656 634.570312 " fill-opacity="1" fill-rule="nonzero"/><path fill="#ffffff" d="M 1254.015625 821.777344 L 1281.917969 859.148438 L 1375.097656 859.148438 L 1300.855469 760.21875 L 1284.792969 781.359375 L 1324.363281 834.121094 L 1295.445312 834.289062 L 1270.078125 800.46875 Z M 1254.015625 821.777344 " fill-opacity="1" fill-rule="nonzero"/></svg>
